<?xml version="1.0" encoding="UTF-8"?>
<svg xmlns="http://www.w3.org/2000/svg" width="261.365" height="51.409" viewBox="0 0 261.365 51.409" role="img" aria-label="asamer technologie">
<g transform="translate(-13.975 -22.575) scale(2.15)" fill="none" stroke="#FFFFFF" stroke-width="3" stroke-linecap="round" stroke-linejoin="round"><path d="M8 12L16 20L8 28"/><path d="M18 12L26 20L18 28" opacity="0.55"/></g><g transform="translate(65.151 34.809) scale(0.58)" fill="#FFFFFF"><path transform="translate(0.000 0) scale(0.100000 -0.100000)" d="M234.55169677734375 -12Q172.18389892578125 -12 131.09194946289062 8.724151611328125Q90 29.44830322265625 70.0 64.17245483398438Q50 98.8966064453125 50 139.8966064453125Q50 189.24151611328125 75.5946720034577 224.11808845588752Q101.18934400691542 258.9946607984938 149.53110539635946 277.8939368445594Q197.8728667858035 296.793212890625 265.929968723031 296.793212890625H397.0576171875Q397.0576171875 339.66693115234375 383.5108672351372 367.92949422200525Q369.9641172827744 396.1920572916667 344.03858687237994 410.5273640950521Q318.11305646198554 424.8626708984375 280.884765625 424.8626708984375Q235.1949462890625 424.8626708984375 201.76953125 402.6614074707031Q168.3441162109375 380.46014404296875 160.89581298828125 337.322021484375H60.735595703125Q66.58617782592773 391.5552591463415 97.56893730163574 429.45008440715515Q128.55169677734375 467.34490966796875 177.15509033203125 487.6724548339844Q225.75848388671875 508 281.06866455078125 508Q350.68343777126734 508 398.87939453125 483.05169677734375Q447.07535129123266 458.1033935546875 472.0660875108507 412.6953430175781Q497.05682373046875 367.28729248046875 497.05682373046875 305V0H409.91949462890625L401.793212890625 85.13812255859375Q391.65416736137576 64.63908859779094 376.2236901260004 46.90004966998922Q360.793212890625 29.1610107421875 340.47711181640625 16.120758056640625Q320.1610107421875 3.08050537109375 293.82737390854777 -4.459747314453125Q267.4937370749081 -12 234.55169677734375 -12ZM253.57606450658645 69.48223876953125Q286.677978515625 69.48223876953125 312.6953430175781 82.3271484375Q338.71270751953125 95.17205810546875 357.0576171875 117.40805725097657Q375.40252685546875 139.6440563964844 384.9427795410156 167.5324865722656Q394.4830322265625 195.42091674804686 395.40252685546875 225.46014404296875V226.2762451171875H275.5745849609375Q232.27545166015625 226.2762451171875 205.49368286132812 215.97158813476562Q178.7119140625 205.66693115234375 166.90725708007812 187.6898193359375Q155.10260009765625 169.71270751953125 155.10260009765625 146.28729248046875Q155.10260009765625 122.677978515625 166.6072639409643 105.29281616210938Q178.11192778427235 87.90765380859375 200.25278645536326 78.6949462890625Q222.39364512645415 69.48223876953125 253.57606450658645 69.48223876953125Z"/><path transform="translate(53.500 0) scale(0.100000 -0.100000)" d="M262.86187744140625 -12Q201.65509033203125 -12 153.45974731445312 8.959747314453125Q105.264404296875 29.91949462890625 76.21270751953125 67.69534301757812Q47.1610107421875 105.47119140625 40.71270751953125 155.91949462890625H141.976318359375Q147.6085205078125 132.3101806640625 162.91317749023438 112.42501831054688Q178.21783447265625 92.53985595703125 203.41909790039062 80.8271484375Q228.620361328125 69.11444091796875 262.9423828125 69.11444091796875Q296.18389892578125 69.11444091796875 316.9368591308594 78.6949462890625Q337.6898193359375 88.27545166015625 347.77032470703125 104.120361328125Q357.850830078125 119.96527099609375 357.850830078125 137.75848388671875Q357.850830078125 164.81610107421875 344.08642578125 178.75296020507812Q330.322021484375 192.6898193359375 303.793212890625 201.04617309570312Q277.264404296875 209.40252685546875 240.47119140625 217.2186279296875Q209.735595703125 223.77032470703125 177.90805053710938 233.77032470703125Q146.08050537109375 243.77032470703125 119.84490966796875 259.27032470703125Q93.60931396484375 274.77032470703125 77.64956665039062 298.5461730957031Q61.6898193359375 322.322021484375 61.6898193359375 357.0576171875Q61.6898193359375 400.4254150390625 84.33346557617188 434.6610107421875Q106.97711181640625 468.8966064453125 149.04025268554688 488.44830322265625Q191.1033935546875 508 248.86187744140625 508Q331.17205810546875 508 382.591552734375 468.3563537597656Q434.01104736328125 428.71270751953125 442.37884521484375 355.264404296875H345.58642578125Q341.2186279296875 388.850830078125 315.9254150390625 407.7762451171875Q290.6322021484375 426.70166015625 248.0457763671875 426.70166015625Q205.53985595703125 426.70166015625 183.28689575195312 409.6325988769531Q161.033935546875 392.56353759765625 161.033935546875 365.24151611328125Q161.033935546875 347.8966064453125 174.75808715820312 334.68389892578125Q188.48223876953125 321.47119140625 213.97079467773438 312.2987365722656Q239.4593505859375 303.12628173828125 273.80426025390625 295.3101806640625Q323.01104736328125 284.5745849609375 364.74664306640625 269.9826354980469Q406.48223876953125 255.39068603515625 432.8902893066406 227.0745849609375Q459.29833984375 198.75848388671875 459.29833984375 144.9423828125Q460.29833984375 99.39068603515625 436.062744140625 63.747039794921875Q411.8271484375 28.1033935546875 367.85595703125 8.05169677734375Q323.884765625 -12 262.86187744140625 -12Z"/><path transform="translate(102.400 0) scale(0.100000 -0.100000)" d="M234.55169677734375 -12Q172.18389892578125 -12 131.09194946289062 8.724151611328125Q90 29.44830322265625 70.0 64.17245483398438Q50 98.8966064453125 50 139.8966064453125Q50 189.24151611328125 75.5946720034577 224.11808845588752Q101.18934400691542 258.9946607984938 149.53110539635946 277.8939368445594Q197.8728667858035 296.793212890625 265.929968723031 296.793212890625H397.0576171875Q397.0576171875 339.66693115234375 383.5108672351372 367.92949422200525Q369.9641172827744 396.1920572916667 344.03858687237994 410.5273640950521Q318.11305646198554 424.8626708984375 280.884765625 424.8626708984375Q235.1949462890625 424.8626708984375 201.76953125 402.6614074707031Q168.3441162109375 380.46014404296875 160.89581298828125 337.322021484375H60.735595703125Q66.58617782592773 391.5552591463415 97.56893730163574 429.45008440715515Q128.55169677734375 467.34490966796875 177.15509033203125 487.6724548339844Q225.75848388671875 508 281.06866455078125 508Q350.68343777126734 508 398.87939453125 483.05169677734375Q447.07535129123266 458.1033935546875 472.0660875108507 412.6953430175781Q497.05682373046875 367.28729248046875 497.05682373046875 305V0H409.91949462890625L401.793212890625 85.13812255859375Q391.65416736137576 64.63908859779094 376.2236901260004 46.90004966998922Q360.793212890625 29.1610107421875 340.47711181640625 16.120758056640625Q320.1610107421875 3.08050537109375 293.82737390854777 -4.459747314453125Q267.4937370749081 -12 234.55169677734375 -12ZM253.57606450658645 69.48223876953125Q286.677978515625 69.48223876953125 312.6953430175781 82.3271484375Q338.71270751953125 95.17205810546875 357.0576171875 117.40805725097657Q375.40252685546875 139.6440563964844 384.9427795410156 167.5324865722656Q394.4830322265625 195.42091674804686 395.40252685546875 225.46014404296875V226.2762451171875H275.5745849609375Q232.27545166015625 226.2762451171875 205.49368286132812 215.97158813476562Q178.7119140625 205.66693115234375 166.90725708007812 187.6898193359375Q155.10260009765625 169.71270751953125 155.10260009765625 146.28729248046875Q155.10260009765625 122.677978515625 166.6072639409643 105.29281616210938Q178.11192778427235 87.90765380859375 200.25278645536326 78.6949462890625Q222.39364512645415 69.48223876953125 253.57606450658645 69.48223876953125Z"/><path transform="translate(155.900 0) scale(0.100000 -0.100000)" d="M67.71270751953125 0V496H157.1373291015625L164.79241943359375 425.65509033203125Q188.79241943359375 464.55169677734375 228.6085205078125 486.2758483886719Q268.42462158203125 508 319.16021728515625 508Q357.7218319671323 508 389.2973783859099 497.7758483886719Q420.8729248046875 487.55169677734375 445.0970764160156 466.6953430175781Q469.32122802734375 445.8389892578125 484.505126953125 414.12628173828125Q511.24072265625 458.3734951019287 557.0568237304688 483.18674755096436Q602.8729248046875 508 655.4246215820312 508Q716.447509765625 508 760.7233581542969 483.58050537109375Q804.9992065429688 459.1610107421875 828.7233581542969 409.7935629790684Q852.447509765625 360.42611521594927 852.447509765625 286.322021484375V0H753.4483032226562V276.2186279296875Q753.4483032226562 348.4424728501773 724.6974670410157 385.6928245598543Q695.946630859375 422.94317626953125 640.4364624023438 422.94317626953125Q602.5102764423077 422.94317626953125 572.982946073092 403.31913430350164Q543.4556157038762 383.6950923374721 526.7676638089694 346.95686013357977Q510.0797119140625 310.2186279296875 510.0797119140625 256.6322021484375V0H410.264404296875V276.2186279296875Q410.264404296875 348.4424728501773 381.5094522565803 385.6928245598543Q352.75450021628563 422.94317626953125 296.65766896497485 422.94317626953125Q259.90765380859375 422.94317626953125 230.52249145507812 403.3224182128906Q201.1373291015625 383.70166015625 184.42462158203125 346.96014404296875Q167.7119140625 310.2186279296875 167.7119140625 256.6322021484375V0Z"/><path transform="translate(244.900 0) scale(0.100000 -0.100000)" d="M297.149169921875 -12Q224.49407958984375 -12 168.39068603515625 20.408050537109375Q112.28729248046875 52.81610107421875 80.32754516601562 111.04025268554688Q48.3677978515625 169.264404296875 48.3677978515625 246.52880859375Q48.3677978515625 325.1610107421875 79.82754516601562 383.6207580566406Q111.28729248046875 442.08050537109375 167.706787109375 475.0402526855469Q224.12628173828125 508 298.59747314453125 508Q371.96527099609375 508 425.3445129394531 475.5919494628906Q478.7237548828125 443.18389892578125 507.9190979003906 389.8563537597656Q537.1144409179688 336.52880859375 537.1144409179688 271.9542236328125Q537.1144409179688 261.9542236328125 537.0224914550781 250.17837524414062Q536.9305419921875 238.40252685546875 535.7466430664062 224.58642578125H121.85003662109375V295.1033935546875H437.19573974609375Q434.19573974609375 355.4830322265625 395.0978698730469 390.2648010253906Q356 425.04656982421875 297.33306884765625 425.04656982421875Q256.90765380859375 425.04656982421875 222.39028930664062 407.14996337890625Q187.8729248046875 389.25335693359375 167.11996459960938 354.5003967285156Q146.36700439453125 319.7474365234375 146.36700439453125 267.13812255859375V238.77032470703125Q146.36700439453125 184.39068603515625 167.16021728515625 146.97671508789062Q187.95343017578125 109.562744140625 222.28689575195312 90.44198608398438Q256.620361328125 71.32122802734375 296.7813720703125 71.32122802734375Q344 71.32122802734375 375.87371826171875 92.9305419921875Q407.7474365234375 114.53985595703125 422.82794189453125 150.9423828125H522.9305419921875Q509.562744140625 104.39068603515625 478.5513000488281 67.65509033203125Q447.53985595703125 30.91949462890625 401.93646240234375 9.459747314453125Q356.33306884765625 -12 297.149169921875 -12Z"/><path transform="translate(300.800 0) scale(0.100000 -0.100000)" d="M67.71270751953125 0V496H157.505126953125L166.3441162109375 400.91949462890625Q183.0797119140625 434.3677978515625 209.17166137695312 458.18389892578125Q235.26361083984375 482 270.8038635253906 495.0Q306.3441162109375 508 350.8729248046875 508V402.89739990234375H323.4593505859375Q291.01104736328125 402.89739990234375 262.5224914550781 394.8571472167969Q234.033935546875 386.81689453125 212.6373291015625 368.73638916015625Q191.24072265625 350.6558837890625 179.476318359375 319.31097412109375Q167.7119140625 287.966064453125 167.7119140625 241.35675048828125V0Z"/></g><g transform="translate(106.493 51.409) scale(0.13)" fill="rgba(255,255,255,0.7)"><path transform="translate(0.000 0) scale(0.100000 -0.100000)" d="M236.30496292221414 0V618.494873046875H28.718741051852703V700H543.7295676022768V618.494873046875H336.14334573191536V0Z"/><path transform="translate(75.200 0) scale(0.100000 -0.100000)" d="M72.86555936187506 0V700H514.5088088735938V618.494873046875H172.8647659048438V393.620361328125H484.5088088735938V313.850830078125H172.8647659048438V81.505126953125H514.5088088735938V0Z"/><path transform="translate(150.300 0) scale(0.100000 -0.100000)" d="M380.1266985607459 -12Q277.2829113471278 -12 202.5035539278273 33.5Q127.7241965085268 79 87.31341824308038 160.5Q46.90263997763395 242 46.90263997763395 349.6322021484375Q46.90263997763395 457.44830322265625 87.31341824308038 539.0402526855469Q127.7241965085268 620.6322021484375 202.5035539278273 666.3161010742188Q277.2829113471278 712 380.1266985607459 712Q502.7428266108036 712 579.4524598241558 653.0690612792969Q656.1620930375079 594.1381225585938 676.8285666257143 486.64404296875H566.9938206897566Q551.8036786615849 548.8855590820312 505.3653780147433 585.9029235839844Q458.9270773679018 622.9202880859375 379.7966009607238 622.9202880859375Q309.28072944283485 622.9202880859375 257.2851661555469 590.0753784179688Q205.28960286825895 557.23046875 177.18767415732145 496.0406494140625Q149.08574544638395 434.850830078125 149.08574544638395 349.6322021484375Q149.08574544638395 264.59747314453125 177.18767415732145 203.49960327148438Q205.28960286825895 142.4017333984375 257.2851661555469 109.64877319335938Q309.28072944283485 76.89581298828125 379.7966009607238 76.89581298828125Q458.9270773679018 76.89581298828125 505.2939928472696 112.45343017578125Q551.6609083266374 148.01104736328125 566.9504071772099 208.5169677734375H676.8285666257143Q656.1963644772768 105.12628173828125 579.4695955440402 46.563140869140625Q502.7428266108036 -12 380.1266985607459 -12Z"/><path transform="translate(240.700 0) scale(0.100000 -0.100000)" d="M518.0265701040626 0V700H618.0257766470313V0ZM72.86555936187506 0V700H172.8647659048438V0ZM156.1291702017188 315.93133544921875V397.620361328125H539.5782668814063V315.93133544921875Z"/><path transform="translate(327.800 0) scale(0.100000 -0.100000)" d="M72.86555936187506 0V700H172.8647659048438L529.8655593618751 163.34633680433035V700H629.8647659048438V0H529.8655593618751L172.8647659048438 536.2858653441072V0Z"/><path transform="translate(416.100 0) scale(0.100000 -0.100000)" d="M388.4101752025616 -12Q287.33477784470585 -12 210.43513321382176 33.591949462890625Q133.53548858293766 79.18389892578125 90.2190642802858 160.68389892578125Q46.90263997763395 242.18389892578125 46.90263997763395 350Q46.90263997763395 457 90.2190642802858 538.5Q133.53548858293766 620 210.43513321382176 666.0Q287.33477784470585 712 388.4101752025616 712Q491.21201847094886 712 568.2102222906976 666.0Q645.2084261104465 620 687.8488563410938 538.5Q730.4892865717411 457 730.4892865717411 350Q730.4892865717411 242.18389892578125 687.8488563410938 160.68389892578125Q645.2084261104465 79.18389892578125 568.2102222906976 33.591949462890625Q491.21201847094886 -12 388.4101752025616 -12ZM388.71896186470985 76.89581298828125Q460.69837863743305 76.89581298828125 514.7580993701087 109.74072265625Q568.8178201027843 142.58563232421875 598.5620006028877 203.77545166015625Q628.3061811029911 264.96527099609375 628.3061811029911 350Q628.3061811029911 435.2186279296875 598.5620006028877 496.3164978027344Q568.8178201027843 557.4143676757812 514.7580993701087 589.8512268066406Q460.69837863743305 622.2880859375 388.71896186470985 622.2880859375Q316.9380803814691 622.2880859375 263.0659451835727 589.8512268066406Q209.19380998567624 557.4143676757812 179.1397777160301 496.3164978027344Q149.08574544638395 435.2186279296875 149.08574544638395 350Q149.08574544638395 264.96527099609375 179.1397777160301 203.77545166015625Q209.19380998567624 142.58563232421875 263.0659451835727 109.74072265625Q316.9380803814691 76.89581298828125 388.71896186470985 76.89581298828125Z"/><path transform="translate(511.800 0) scale(0.100000 -0.100000)" d="M72.86555936187506 0V700H172.8647659048438V78.95343017578125H492.9800002798438V0Z"/><path transform="translate(583.500 0) scale(0.100000 -0.100000)" d="M388.4101752025616 -12Q287.33477784470585 -12 210.43513321382176 33.591949462890625Q133.53548858293766 79.18389892578125 90.2190642802858 160.68389892578125Q46.90263997763395 242.18389892578125 46.90263997763395 350Q46.90263997763395 457 90.2190642802858 538.5Q133.53548858293766 620 210.43513321382176 666.0Q287.33477784470585 712 388.4101752025616 712Q491.21201847094886 712 568.2102222906976 666.0Q645.2084261104465 620 687.8488563410938 538.5Q730.4892865717411 457 730.4892865717411 350Q730.4892865717411 242.18389892578125 687.8488563410938 160.68389892578125Q645.2084261104465 79.18389892578125 568.2102222906976 33.591949462890625Q491.21201847094886 -12 388.4101752025616 -12ZM388.71896186470985 76.89581298828125Q460.69837863743305 76.89581298828125 514.7580993701087 109.74072265625Q568.8178201027843 142.58563232421875 598.5620006028877 203.77545166015625Q628.3061811029911 264.96527099609375 628.3061811029911 350Q628.3061811029911 435.2186279296875 598.5620006028877 496.3164978027344Q568.8178201027843 557.4143676757812 514.7580993701087 589.8512268066406Q460.69837863743305 622.2880859375 388.71896186470985 622.2880859375Q316.9380803814691 622.2880859375 263.0659451835727 589.8512268066406Q209.19380998567624 557.4143676757812 179.1397777160301 496.3164978027344Q149.08574544638395 435.2186279296875 149.08574544638395 350Q149.08574544638395 264.96527099609375 179.1397777160301 203.77545166015625Q209.19380998567624 142.58563232421875 263.0659451835727 109.74072265625Q316.9380803814691 76.89581298828125 388.71896186470985 76.89581298828125Z"/><path transform="translate(679.200 0) scale(0.100000 -0.100000)" d="M375.50033393502235 -12Q277.13253608345985 -12 203.04058662056923 33.224151611328125Q128.9486371576786 78.44830322265625 87.92563856765628 159.264404296875Q46.90263997763395 240.08050537109375 46.90263997763395 347.8966064453125Q46.90263997763395 455.08050537109375 88.66599290244541 537.264404296875Q130.42934582725687 619.4483032226562 207.7338571863973 665.7241516113281Q285.0383685455377 712 390.66214494403926 712Q510.4656049311161 712 590.2617241782033 654.6724548339844Q670.0578434252905 597.3449096679688 692.6263948604465 495.0576171875H578.771083881592Q564.3858930170536 552.908447265625 515.971922069788 586.5063171386719Q467.55795112252235 620.1041870117188 390.44271674752235 620.1041870117188Q316.2012006342411 620.1041870117188 261.6883820364578 587.1673278808594Q207.1755634386745 554.23046875 178.13065444252922 493.2648010253906Q149.08574544638395 432.29913330078125 149.08574544638395 347.71270751953125Q149.08574544638395 262.9423828125 178.17780531570315 201.93646240234375Q207.26986518502235 140.9305419921875 259.919431835413 108.95343017578125Q312.5689984858036 76.976318359375 381.81051459908485 76.976318359375Q487.55795112252235 76.976318359375 541.5236188471317 137.91909790039062Q595.4892865717411 198.86187744140625 603.8570844233036 301.0118408203125H411.23592963814735V378.0457763671875H705.4884931147099V0H613.5926801264286L605.4892865717411 106.72454833984375Q581.4087812006474 68.4830322265625 549.9202252924442 41.822021484375Q518.4316693842411 15.1610107421875 475.99481025338173 1.58050537109375Q433.55795112252235 -12 375.50033393502235 -12Z"/><path transform="translate(773.600 0) scale(0.100000 -0.100000)" d="M72.86555936187506 0V700H172.8647659048438V0Z"/><path transform="translate(816.200 0) scale(0.100000 -0.100000)" d="M72.86555936187506 0V700H514.5088088735938V618.494873046875H172.8647659048438V393.620361328125H484.5088088735938V313.850830078125H172.8647659048438V81.505126953125H514.5088088735938V0Z"/></g>
</svg>
