<svg xmlns="http://www.w3.org/2000/svg" viewBox="0 0 1321 272" width="1321" height="272">
	<style>
		tspan { white-space:pre }
		.shp0 { fill: #000000 } 
	</style>
	<g >
		<g >
			<path fill-rule="evenodd" class="shp0" d="M544.54 0.66L544.54 176.9L480.03 176.9L480.03 118.58L404.23 118.58L404.23 176.9L339.72 176.9L339.72 0.66L544.54 0.66ZM404.23 47.34L404.23 71.92L480.03 71.92L480.03 47.34L404.23 47.34Z" />
			<path class="shp0" d="M0.68 0.68L0.68 176.67L65.09 176.67L65.09 47.29L114.73 47.29L114.73 176.67L179.15 176.67L179.15 47.29L228.77 47.29L228.77 176.67L293.2 176.67L293.2 0.68L0.68 0.68Z" />
			<path class="shp0" d="M837.84 0.66L837.84 176.9L902.35 176.9L1007.03 176.9L1007.03 130.22L902.35 130.22L902.35 105.69L1007.03 105.69L1007.03 71.91L902.35 71.91L902.35 47.34L1007.03 47.34L1007.03 0.66L837.84 0.66Z" />
			<path fill-rule="evenodd" class="shp0" d="M1258.33 0.66L1258.33 118.58L1202.42 118.58L1265.5 176.9L1180.93 176.9L1118.02 118.75L1118.02 176.9L1053.51 176.9L1053.51 0.66L1258.33 0.66ZM1118.02 71.92L1193.82 71.92L1193.82 47.34L1118.02 47.34L1118.02 71.92Z" />
			<path class="shp0" d="M738.61 0.66L700.76 76.72L657.03 0.66L582.76 0.66L657.26 130.22L588.68 130.22L615.42 176.9L720.19 176.9L720.19 176.38L720.44 176.5L807.94 0.66L738.61 0.66Z" />
		</g>
		<path fill-rule="evenodd" class="shp0" d="M1320.51 157.01C1320.51 162.4 1318.61 167 1314.81 170.82C1311.01 174.63 1306.41 176.54 1301.02 176.54C1295.63 176.54 1291.05 174.63 1287.27 170.82C1283.5 167.02 1281.62 162.41 1281.62 157.01C1281.62 151.66 1283.52 147.08 1287.32 143.28C1291.1 139.5 1295.67 137.61 1301.02 137.61C1306.42 137.61 1311.01 139.5 1314.81 143.28C1318.62 147.06 1320.51 151.64 1320.51 157.01ZM1301.03 140.23C1296.42 140.23 1292.48 141.87 1289.21 145.16C1285.96 148.43 1284.33 152.38 1284.33 157.01C1284.33 161.68 1285.95 165.65 1289.18 168.94C1292.44 172.22 1296.39 173.87 1301.03 173.87C1305.68 173.87 1309.63 172.23 1312.88 168.94C1316.12 165.65 1317.75 161.67 1317.75 157.01C1317.75 152.38 1316.13 148.43 1312.88 145.16C1309.61 141.88 1305.66 140.23 1301.03 140.23ZM1293.18 167.64L1293.18 146.27L1300.65 146.27C1303.3 146.27 1305.24 146.53 1306.48 147.04C1308.69 147.96 1309.79 149.76 1309.79 152.45C1309.79 154.36 1309.09 155.76 1307.7 156.66C1306.96 157.14 1305.92 157.49 1304.6 157.7C1306.27 157.96 1307.5 158.66 1308.28 159.79C1309.06 160.92 1309.45 162.02 1309.45 163.1L1309.45 164.67C1309.45 165.17 1309.47 165.7 1309.5 166.26C1309.54 166.83 1309.6 167.2 1309.69 167.37L1309.82 167.64L1306.3 167.64C1306.27 167.57 1306.26 167.5 1306.24 167.43C1306.23 167.36 1306.21 167.28 1306.19 167.19L1306.11 166.5L1306.11 164.8C1306.11 162.33 1305.45 160.69 1304.1 159.9C1303.31 159.44 1301.92 159.21 1299.92 159.21L1296.95 159.21L1296.95 167.64L1293.18 167.64ZM1306.12 152.78C1306.12 151.22 1305.65 150.18 1304.7 149.65C1303.76 149.12 1302.24 148.85 1300.15 148.85L1296.95 148.85L1296.95 156.59L1300.34 156.59C1301.93 156.59 1303.12 156.43 1303.92 156.11C1305.38 155.53 1306.12 154.41 1306.12 152.78Z" />
	</g>
	<g >
		<g >
			<path class="shp0" d="M48.64 270.15L41.2 234.18L41.08 234.18L25.93 271.6L10.83 234.19L10.71 234.19L3.27 270.16L0.62 270.16L9.96 225.25L25.93 264.8L41.96 225.25L51.3 270.16L48.64 270.16L48.64 270.15Z" />
			<path class="shp0" d="M77.23 229.28L59.24 229.28L59.24 245.07L76.76 245.07L76.76 247.66L59.24 247.66L59.24 267.55L77.23 267.55L77.23 270.14L56.48 270.14L56.48 226.67L77.23 226.67L77.23 229.28Z" />
			<path class="shp0" d="M129.58 270.15L122.14 234.18L122.02 234.18L106.86 271.59L91.76 234.18L91.64 234.18L84.2 270.15L81.55 270.15L90.89 225.24L106.86 264.79L122.89 225.24L132.23 270.15L129.58 270.15Z" />
			<path fill-rule="evenodd" class="shp0" d="M146.12 226.69C149.89 226.69 152.69 227.38 154.54 228.77C157.34 230.88 158.75 234.02 158.75 238.17C158.75 240.25 158.36 241.98 157.57 243.39C156.78 244.79 155.5 246.03 153.74 247.11C156.62 247.84 158.79 249.13 160.25 250.97C161.9 252.97 162.73 255.35 162.73 258.12C162.73 262.5 160.89 265.85 157.2 268.15C155.05 269.5 152.16 270.17 148.55 270.17L137.42 270.17L137.42 226.69L146.12 226.69ZM140.18 246.4L144.96 246.4C147 246.4 148.32 246.37 148.94 246.31C149.56 246.25 150.25 246.07 151.02 245.76C154.32 244.42 155.98 241.82 155.98 237.98C155.98 234.6 154.79 232.16 152.41 230.66C150.95 229.74 148.47 229.28 144.97 229.28L140.18 229.28L140.18 246.4ZM140.18 267.56L146.81 267.56C149.31 267.56 151.07 267.47 152.08 267.3C153.1 267.13 154.11 266.77 155.11 266.23C156.61 265.39 157.79 264.24 158.66 262.8C159.52 261.36 159.96 259.81 159.96 258.16C159.96 256.47 159.56 254.92 158.75 253.52C157.94 252.12 156.85 251.07 155.46 250.38C153.58 249.46 150.52 249 146.29 249L140.18 249L140.18 267.56Z" />
			<path class="shp0" d="M189.59 229.28L171.6 229.28L171.6 245.07L189.12 245.07L189.12 247.66L171.6 247.66L171.6 267.55L189.59 267.55L189.59 270.14L168.84 270.14L168.84 226.67L189.59 226.67L189.59 229.28Z" />
			<path fill-rule="evenodd" class="shp0" d="M204.17 249.57L218.41 270.15L215.24 270.15L201.06 249.57L199.68 249.57L199.68 270.15L196.91 270.15L196.91 226.68L202.33 226.68C204.79 226.68 206.67 226.81 207.98 227.05C209.29 227.3 210.5 227.77 211.61 228.46C214.95 230.46 216.63 233.71 216.63 238.2C216.63 242 215.36 244.93 212.83 246.96C211.71 247.88 210.52 248.53 209.26 248.89C207.98 249.28 206.29 249.5 204.17 249.57ZM203.2 246.98C206.43 246.98 208.79 246.44 210.29 245.37C212.67 243.64 213.86 241.22 213.86 238.11C213.86 236.34 213.45 234.76 212.62 233.35C211.79 231.95 210.67 230.92 209.25 230.27C208.37 229.85 207.44 229.58 206.48 229.46C205.52 229.34 203.85 229.29 201.46 229.29L199.67 229.29L199.67 246.98L203.2 246.98Z" />
			<path fill-rule="evenodd" class="shp0" d="M262.68 226.11C268.91 226.11 274.25 228.3 278.71 232.68C283.17 237.06 285.4 242.31 285.4 248.42C285.4 254.49 283.18 259.73 278.74 264.13C274.3 268.53 269.01 270.73 262.86 270.73C256.71 270.73 251.42 268.53 246.98 264.13C242.54 259.73 240.32 254.49 240.32 248.42C240.32 242.35 242.53 237.11 246.95 232.71C251.37 228.31 256.61 226.11 262.68 226.11ZM262.97 228.71C257.51 228.71 252.83 230.64 248.93 234.5C245.03 238.36 243.08 243 243.08 248.42C243.08 253.8 245.02 258.43 248.9 262.31C252.78 266.19 257.43 268.13 262.85 268.13C268.23 268.13 272.87 266.19 276.77 262.31C280.67 258.43 282.62 253.8 282.62 248.42C282.62 243.08 280.68 238.46 276.8 234.56C272.93 230.66 268.31 228.71 262.97 228.71Z" />
			<path class="shp0" d="M309.67 229.28L294.91 229.28L294.91 245.07L309.26 245.07L309.26 247.66L294.91 247.66L294.91 270.14L292.14 270.14L292.14 226.67L309.66 226.67L309.66 229.28L309.67 229.28Z" />
			<path class="shp0" d="M353.13 229.28L338.37 229.28L338.37 245.07L352.72 245.07L352.72 247.66L338.37 247.66L338.37 270.14L335.6 270.14L335.6 226.67L353.12 226.67L353.12 229.28L353.13 229.28Z" />
			<path class="shp0" d="M380.8 229.28L362.81 229.28L362.81 245.07L380.33 245.07L380.33 247.66L362.81 247.66L362.81 267.55L380.8 267.55L380.8 270.14L360.05 270.14L360.05 226.67L380.8 226.67L380.8 229.28Z" />
			<path class="shp0" d="M390.89 226.69L390.89 267.56L401.96 267.56L401.96 270.15L388.12 270.15L388.12 226.68L390.89 226.68L390.89 226.69Z" />
			<path fill-rule="evenodd" class="shp0" d="M406.97 270.15L406.97 226.68L414.81 226.68C418.5 226.68 421.59 227.1 424.09 227.95C426.59 228.8 428.87 230.2 430.95 232.16C435.56 236.46 437.87 241.88 437.87 248.42C437.87 254.72 435.64 260.05 431.18 264.39C429.03 266.43 426.68 267.9 424.15 268.8C421.61 269.7 418.5 270.15 414.81 270.15L406.97 270.15ZM414.76 267.56C420.95 267.56 425.81 265.81 429.34 262.31C433.18 258.47 435.1 253.84 435.1 248.42C435.1 242.66 433.01 237.85 428.82 234.01C425.32 230.86 420.63 229.28 414.75 229.28L409.73 229.28L409.73 267.56L414.76 267.56Z" />
			<path class="shp0" d="M464.16 229.28L446.17 229.28L446.17 245.07L463.69 245.07L463.69 247.66L446.17 247.66L446.17 267.55L464.16 267.55L464.16 270.14L443.41 270.14L443.41 226.67L464.16 226.67L464.16 229.28Z" />
			<path fill-rule="evenodd" class="shp0" d="M478.74 249.57L492.98 270.15L489.81 270.15L475.63 249.57L474.25 249.57L474.25 270.15L471.48 270.15L471.48 226.68L476.9 226.68C479.36 226.68 481.24 226.81 482.55 227.05C483.86 227.3 485.07 227.77 486.18 228.46C489.52 230.46 491.2 233.71 491.2 238.2C491.2 242 489.93 244.93 487.4 246.96C486.28 247.88 485.09 248.53 483.83 248.89C482.55 249.28 480.86 249.5 478.74 249.57ZM477.77 246.98C481 246.98 483.36 246.44 484.86 245.37C487.24 243.64 488.43 241.22 488.43 238.11C488.43 236.34 488.02 234.76 487.19 233.35C486.36 231.95 485.24 230.92 483.82 230.27C482.94 229.85 482.01 229.58 481.05 229.46C480.09 229.34 478.42 229.29 476.03 229.29L474.24 229.29L474.24 246.98L477.77 246.98Z" />
			<path class="shp0" d="M539.91 249.23L558.24 249.23C558.24 252 558.08 254.19 557.75 255.8C557.42 257.41 556.84 258.99 555.99 260.53C554.3 263.57 551.71 266.03 548.24 267.91C544.76 269.79 541.08 270.73 537.2 270.73C531.13 270.73 525.89 268.54 521.49 264.16C517.09 259.78 514.89 254.57 514.89 248.54C514.89 242.35 517.1 237.07 521.52 232.69C525.94 228.31 531.28 226.12 537.55 226.12C541.32 226.12 544.72 226.94 547.75 228.57C550.79 230.2 553.67 232.77 556.4 236.27L554.15 238.06C549.69 231.83 544.14 228.72 537.49 228.72C532.15 228.72 527.51 230.68 523.57 234.6C519.63 238.52 517.66 243.15 517.66 248.49C517.66 253.87 519.6 258.49 523.48 262.35C527.36 266.21 531.97 268.14 537.31 268.14C539.96 268.14 542.63 267.54 545.32 266.35C548.01 265.16 550.2 263.6 551.89 261.68C553.08 260.37 553.95 258.97 554.48 257.47C555.02 255.97 555.34 254.09 555.46 251.82L539.9 251.82L539.9 249.23L539.91 249.23Z" />
			<path fill-rule="evenodd" class="shp0" d="M572.25 249.57L586.49 270.15L583.32 270.15L569.14 249.57L567.76 249.57L567.76 270.15L564.99 270.15L564.99 226.68L570.41 226.68C572.87 226.68 574.75 226.81 576.06 227.05C577.37 227.3 578.58 227.77 579.69 228.46C583.03 230.46 584.71 233.71 584.71 238.2C584.71 242 583.44 244.93 580.91 246.96C579.79 247.88 578.6 248.53 577.34 248.89C576.05 249.28 574.36 249.5 572.25 249.57ZM571.27 246.98C574.5 246.98 576.86 246.44 578.36 245.37C580.74 243.64 581.93 241.22 581.93 238.11C581.93 236.34 581.52 234.76 580.69 233.35C579.86 231.95 578.74 230.92 577.32 230.27C576.44 229.85 575.51 229.58 574.55 229.46C573.59 229.34 571.92 229.29 569.53 229.29L567.74 229.29L567.74 246.98L571.27 246.98Z" />
			<path fill-rule="evenodd" class="shp0" d="M611.56 226.11C617.79 226.11 623.13 228.3 627.59 232.68C632.05 237.06 634.28 242.31 634.28 248.42C634.28 254.49 632.06 259.73 627.62 264.13C623.18 268.53 617.89 270.73 611.74 270.73C605.59 270.73 600.3 268.53 595.86 264.13C591.42 259.73 589.2 254.49 589.2 248.42C589.2 242.35 591.41 237.11 595.83 232.71C600.24 228.31 605.49 226.11 611.56 226.11ZM611.85 228.71C606.39 228.71 601.71 230.64 597.81 234.5C593.91 238.36 591.96 243 591.96 248.42C591.96 253.8 593.9 258.43 597.78 262.31C601.66 266.19 606.31 268.13 611.73 268.13C617.11 268.13 621.75 266.19 625.65 262.31C629.55 258.43 631.5 253.8 631.5 248.42C631.5 243.08 629.56 238.46 625.68 234.56C621.8 230.66 617.19 228.71 611.85 228.71Z" />
			<path class="shp0" d="M643.38 226.69L643.38 252.98C643.38 255.94 643.5 258.14 643.75 259.58C644 261.02 644.49 262.28 645.22 263.36C646.14 264.78 647.53 265.94 649.4 266.82C651.26 267.7 653.25 268.15 655.37 268.15C657.64 268.15 659.75 267.64 661.71 266.62C663.67 265.6 665.07 264.3 665.92 262.73C666.88 260.85 667.36 257.6 667.36 252.99L667.36 226.7L670.13 226.7L670.13 253.79C670.13 256.87 669.98 259.14 669.67 260.62C669.36 262.1 668.75 263.51 667.83 264.86C666.64 266.63 664.89 268.05 662.58 269.13C660.27 270.21 657.87 270.74 655.37 270.74C653.06 270.74 650.84 270.28 648.71 269.36C646.58 268.44 644.86 267.21 643.55 265.67C642.4 264.32 641.62 262.84 641.22 261.2C640.82 259.57 640.62 257.1 640.62 253.79L640.62 226.7L643.38 226.7L643.38 226.69Z" />
			<path fill-rule="evenodd" class="shp0" d="M680.68 270.16L677.91 270.16L677.91 226.69L685.58 226.69C689.58 226.69 692.5 227.38 694.34 228.77C695.76 229.77 696.88 231.1 697.68 232.75C698.49 234.4 698.89 236.19 698.89 238.11C698.89 241.8 697.68 244.68 695.26 246.76C693.07 248.6 689.84 249.53 685.58 249.53L680.68 249.53L680.68 270.16ZM685.7 246.92C688.77 246.92 691.14 246.29 692.79 245.02C695.02 243.29 696.13 240.97 696.13 238.05C696.13 235.01 695.04 232.67 692.84 231.02C691.96 230.37 690.97 229.92 689.9 229.67C688.82 229.42 687.27 229.29 685.23 229.29L680.68 229.29L680.68 246.92L685.7 246.92Z" />
		</g>
	</g>
</svg>